<svg version="1.1" xmlns="http://www.w3.org/2000/svg" viewBox="0 0 741.6223708522677 322.6711484545121" width="741.6223708522677" height="322.6711484545121" filter="invert(93%) hue-rotate(180deg)">
  <!-- svg-source:excalidraw -->
  
  <defs>
    <style class="style-fonts">
      @font-face {
        font-family: "Virgil";
        src: url("https://excalidraw.com/Virgil.woff2");
      }
      @font-face {
        font-family: "Cascadia";
        src: url("https://excalidraw.com/Cascadia.woff2");
      }
      @font-face {
        font-family: "Assistant";
        src: url("https://excalidraw.com/Assistant-Regular.woff2");
      }
    </style>
    
  </defs>
  <g stroke-linecap="round" transform="translate(491.27350933819184 17.979161203891408) rotate(0 120.17443075703795 109.15935411163765)"><path d="M32 0 C80.27 -0.54, 129.55 1.9, 208.35 0 M32 0 C98.64 0.44, 165.17 1.44, 208.35 0 M208.35 0 C228.88 -1.62, 242.34 11.52, 240.35 32 M208.35 0 C230.3 1.14, 238.78 10.96, 240.35 32 M240.35 32 C239.85 87.05, 240.2 140.67, 240.35 186.32 M240.35 32 C238.96 77.42, 239.56 123.69, 240.35 186.32 M240.35 186.32 C239.77 208.79, 231.55 219.08, 208.35 218.32 M240.35 186.32 C238.72 207.79, 229.72 217.59, 208.35 218.32 M208.35 218.32 C148.2 218.34, 86.43 221.3, 32 218.32 M208.35 218.32 C157.42 220.09, 109.44 218.6, 32 218.32 M32 218.32 C10.9 217.35, 0.03 207.78, 0 186.32 M32 218.32 C11.26 216.31, -1.69 208.28, 0 186.32 M0 186.32 C0.81 153.01, 0.59 119.05, 0 32 M0 186.32 C0.1 127.85, -0.74 69.75, 0 32 M0 32 C0.7 9.8, 11.19 -0.56, 32 0 M0 32 C0.66 10.74, 10.49 -0.71, 32 0" stroke="#1e1e1e" stroke-width="2" fill="none"></path></g><g transform="translate(507.5380279858548 22.979161203891408) rotate(0 103.909912109375 25)"><text x="103.909912109375" y="17.52" font-family="Virgil, Segoe UI Emoji" font-size="20px" fill="#1e1e1e" text-anchor="middle" style="white-space: pre;" direction="ltr" dominant-baseline="alphabetic">Background Services </text><text x="103.909912109375" y="42.519999999999996" font-family="Virgil, Segoe UI Emoji" font-size="20px" fill="#1e1e1e" text-anchor="middle" style="white-space: pre;" direction="ltr" dominant-baseline="alphabetic">(Actors)</text></g><g stroke-linecap="round" transform="translate(10 10) rotate(0 122.96965897757275 151.33557422725605)"><path d="M32 0 C71.66 0.18, 107.18 -0.68, 213.94 0 M32 0 C77.7 -1.78, 125.21 -0.54, 213.94 0 M213.94 0 C235.81 0.99, 244.57 10.92, 245.94 32 M213.94 0 C236.45 -0.85, 244.95 10.75, 245.94 32 M245.94 32 C246.35 113.59, 245.19 194.46, 245.94 270.67 M245.94 32 C244.95 86.55, 245.97 140.46, 245.94 270.67 M245.94 270.67 C244.53 292.12, 235.3 302.04, 213.94 302.67 M245.94 270.67 C246.91 290.43, 237.12 302.87, 213.94 302.67 M213.94 302.67 C171.71 303.52, 131.47 302.13, 32 302.67 M213.94 302.67 C148.52 300.58, 82.88 301.13, 32 302.67 M32 302.67 C11.18 300.92, -1.47 292.55, 0 270.67 M32 302.67 C8.79 301.35, 1.74 291.92, 0 270.67 M0 270.67 C1.6 194.55, -0.93 118.47, 0 32 M0 270.67 C1.23 203.4, 1.16 136.62, 0 32 M0 32 C0.57 10.73, 10.51 -0.62, 32 0 M0 32 C0.03 12.04, 9.81 1.14, 32 0" stroke="#1e1e1e" stroke-width="2" fill="none"></path></g><g transform="translate(59.399720317904666 15) rotate(0 73.56993865966797 12.5)"><text x="73.56993865966797" y="17.52" font-family="Virgil, Segoe UI Emoji" font-size="20px" fill="#1e1e1e" text-anchor="middle" style="white-space: pre;" direction="ltr" dominant-baseline="alphabetic">HTTP Handlers</text></g><g mask="url(#mask-RABdcCk1TfPSNFclqQqy0)" stroke-linecap="round"><g transform="translate(235.0335992858984 173.97284272935445) rotate(0 139.0400962309668 -25.055509536570653)"><path d="M-0.07 -0.56 C46.16 -8.7, 231.53 -41.05, 277.81 -49.47 M-1.56 1.76 C44.44 -6.68, 230.36 -42.58, 276.72 -51.26" stroke="#1e1e1e" stroke-width="2" fill="none"></path></g><g transform="translate(235.0335992858984 173.97284272935445) rotate(0 139.0400962309668 -25.055509536570653)"><path d="M255.24 -38.46 C261.63 -43.22, 270.88 -47.89, 276.72 -51.26 M255.24 -38.46 C260.09 -40.86, 263.84 -44.03, 276.72 -51.26" stroke="#1e1e1e" stroke-width="2" fill="none"></path></g><g transform="translate(235.0335992858984 173.97284272935445) rotate(0 139.0400962309668 -25.055509536570653)"><path d="M252.04 -55.26 C259.42 -54.35, 269.75 -53.35, 276.72 -51.26 M252.04 -55.26 C257.76 -53.99, 262.21 -53.49, 276.72 -51.26" stroke="#1e1e1e" stroke-width="2" fill="none"></path></g></g><mask id="mask-RABdcCk1TfPSNFclqQqy0"><rect x="0" y="0" fill="#fff" width="613.1137917478322" height="324.0838618024958"></rect><rect x="274.7337831023142" y="136.41733319278381" fill="#000" width="198.67982482910156" height="25" opacity="1"></rect></mask><g transform="translate(274.7337831023144 136.41733319278381) rotate(0 98.42367473477975 12.807731552226471)"><text x="99.33991241455078" y="17.52" font-family="Virgil, Segoe UI Emoji" font-size="20px" fill="#1e1e1e" text-anchor="middle" style="white-space: pre;" direction="ltr" dominant-baseline="alphabetic">Message::StartTask</text></g><g stroke-linecap="round" transform="translate(27.613376569595857 62.76355652431556) rotate(0 102.07523508861311 111.71902658829246)"><path d="M32 0 C69.26 2.56, 110.62 1.1, 172.15 0 M32 0 C81.51 -0.55, 129.57 -0.14, 172.15 0 M172.15 0 C194.36 0.42, 204.46 10.65, 204.15 32 M172.15 0 C192.86 -1.62, 201.91 8.98, 204.15 32 M204.15 32 C204.3 75.74, 203.92 114.33, 204.15 191.44 M204.15 32 C204.6 80.08, 204.98 129.62, 204.15 191.44 M204.15 191.44 C202.76 211.49, 195.05 223.1, 172.15 223.44 M204.15 191.44 C203.49 214.29, 191.22 224.82, 172.15 223.44 M172.15 223.44 C115.35 223.63, 60.62 224.11, 32 223.44 M172.15 223.44 C141.55 223.25, 113.35 223.78, 32 223.44 M32 223.44 C11.07 223.14, 0.16 214.32, 0 191.44 M32 223.44 C11.07 221.75, 0.86 212.32, 0 191.44 M0 191.44 C-0.82 151.62, -0.51 111.32, 0 32 M0 191.44 C0.14 143.68, -0.25 95.22, 0 32 M0 32 C1.86 10.86, 10.79 0.39, 32 0 M0 32 C0 12.52, 9.41 0.65, 32 0" stroke="#1e1e1e" stroke-width="2" fill="none"></path></g><g stroke-linecap="round" transform="translate(43.32195160059291 84.6569699579818) rotate(0 86.59261784619355 40.329578760724324)"><path d="M20.16 0 C65.35 1.32, 103.04 -0.71, 153.02 0 C169.97 1.73, 171.95 8.18, 173.19 20.16 C176.25 32.33, 173.42 50.68, 173.19 60.49 C173.71 75.73, 168.94 82.04, 153.02 80.66 C125.65 83.15, 92.86 80.87, 20.16 80.66 C9.32 83.1, -0.72 74.31, 0 60.49 C3.37 52.54, 3.37 45.74, 0 20.16 C0.61 4.9, 6.48 0.15, 20.16 0" stroke="none" stroke-width="0" fill="#4dabf7"></path><path d="M20.16 0 C65.82 -0.75, 110.1 -2.15, 153.02 0 M20.16 0 C49.97 1.4, 81.29 1.21, 153.02 0 M153.02 0 C165.05 0.12, 173.22 6.09, 173.19 20.16 M153.02 0 C167.43 -1.58, 175.03 6.92, 173.19 20.16 M173.19 20.16 C172.59 28.88, 174.25 36.77, 173.19 60.49 M173.19 20.16 C173.7 34.21, 173.6 49.28, 173.19 60.49 M173.19 60.49 C173.7 72.19, 164.99 81.21, 153.02 80.66 M173.19 60.49 C171.31 72.62, 168.21 80.57, 153.02 80.66 M153.02 80.66 C112.04 81.11, 66.48 81.51, 20.16 80.66 M153.02 80.66 C116.13 80.19, 78.79 80.35, 20.16 80.66 M20.16 80.66 C7.3 80.72, -0.15 73.32, 0 60.49 M20.16 80.66 C6.76 82.03, -0.85 75.08, 0 60.49 M0 60.49 C0.35 44.63, 1.57 27.69, 0 20.16 M0 60.49 C-0.27 46.95, 0.34 34.17, 0 20.16 M0 20.16 C-0.16 8.27, 4.98 1.01, 20.16 0 M0 20.16 C-1.65 5.23, 5.9 -1.04, 20.16 0" stroke="#1e1e1e" stroke-width="2" fill="none"></path></g><g transform="translate(84.01774937842697 115.30465485524843) rotate(0 45.896820068359375 9.681893863457686)"><text x="45.896820068359375" y="13.570142439022295" font-family="Virgil, Segoe UI Emoji" font-size="15.491030181532297px" fill="#1e1e1e" text-anchor="middle" style="white-space: pre;" direction="ltr" dominant-baseline="alphabetic">POST /build</text></g><g stroke-linecap="round" transform="translate(43.42915392435452 182.9728049496258) rotate(0 86.59261784619355 40.329578760724324)"><path d="M20.16 0 C73.2 1.34, 118 1.06, 153.02 0 C168.58 2.29, 169.61 9.33, 173.19 20.16 C173.66 31.47, 175.61 40.57, 173.19 60.49 C170.49 76.29, 169.17 83.21, 153.02 80.66 C113.19 82.05, 67.45 79.97, 20.16 80.66 C3.71 80.59, -2.6 77.3, 0 60.49 C-0.07 45.71, -0.92 34.72, 0 20.16 C-1.84 6.93, 10.12 1.57, 20.16 0" stroke="none" stroke-width="0" fill="#4dabf7"></path><path d="M20.16 0 C54.95 0.55, 91.43 0.72, 153.02 0 M20.16 0 C66.91 -0.45, 115.08 -0.82, 153.02 0 M153.02 0 C167.3 -1.37, 174.79 6.89, 173.19 20.16 M153.02 0 C164.86 -1.47, 174.99 6.34, 173.19 20.16 M173.19 20.16 C174.66 33.07, 171.69 42.27, 173.19 60.49 M173.19 20.16 C173.45 29.43, 172.46 40.72, 173.19 60.49 M173.19 60.49 C171.55 72.79, 167.98 80.58, 153.02 80.66 M173.19 60.49 C173.65 73.59, 166.64 82.44, 153.02 80.66 M153.02 80.66 C110.46 80.21, 68.63 81.86, 20.16 80.66 M153.02 80.66 C119.19 80.32, 84.7 79.98, 20.16 80.66 M20.16 80.66 C6.75 81.85, -0.74 74.93, 0 60.49 M20.16 80.66 C8.86 80.88, 0.14 74.39, 0 60.49 M0 60.49 C0.24 47.88, 0.55 35.55, 0 20.16 M0 60.49 C-0.17 50.44, -0.96 39.35, 0 20.16 M0 20.16 C-1.43 5.42, 6.01 -0.9, 20.16 0 M0 20.16 C0.46 8.25, 7.97 1.7, 20.16 0" stroke="#1e1e1e" stroke-width="2" fill="none"></path></g><g transform="translate(73.23548637015733 213.62048984689244) rotate(0 56.786285400390625 9.681893863457688)"><text x="56.786285400390625" y="13.570142439022295" font-family="Virgil, Segoe UI Emoji" font-size="15.491030181532297px" fill="#1e1e1e" text-anchor="middle" style="white-space: pre;" direction="ltr" dominant-baseline="alphabetic">DELETE /build</text></g><g stroke-linecap="round" transform="translate(514.6362942058652 85.99737477346594) rotate(0 65.6918046816952 51.98493485622139)"><path d="M25.99 0 C57.62 3.77, 87.1 1.76, 105.39 0 C122.41 -1.59, 133.98 11.11, 131.38 25.99 C131.41 37.96, 134.84 55.88, 131.38 77.98 C134.74 97.99, 123.33 102.15, 105.39 103.97 C82.31 106.63, 60.38 103.71, 25.99 103.97 C10.1 102.11, 2.32 98.56, 0 77.98 C0.01 58.52, -3.98 44.04, 0 25.99 C-0.5 10.76, 12.11 2.97, 25.99 0" stroke="none" stroke-width="0" fill="#4dabf7"></path><path d="M25.99 0 C54.91 2.12, 86.04 -0.02, 105.39 0 M25.99 0 C56.05 -1.36, 84.26 -0.96, 105.39 0 M105.39 0 C122.75 0.13, 131.9 6.91, 131.38 25.99 M105.39 0 C121.03 0.63, 129.51 7.35, 131.38 25.99 M131.38 25.99 C131.06 45.69, 132.92 65.41, 131.38 77.98 M131.38 25.99 C131.11 37.74, 131.93 49.1, 131.38 77.98 M131.38 77.98 C131.91 94.75, 123.29 104.04, 105.39 103.97 M131.38 77.98 C131.21 94.59, 122.75 105.34, 105.39 103.97 M105.39 103.97 C84.71 104.83, 64.03 104.71, 25.99 103.97 M105.39 103.97 C74.91 104.63, 44.58 103.88, 25.99 103.97 M25.99 103.97 C9.13 104.25, -0.16 96.85, 0 77.98 M25.99 103.97 C6.66 105.13, -1.65 93.81, 0 77.98 M0 77.98 C1.57 65.32, 1.71 51.95, 0 25.99 M0 77.98 C0.4 65.19, 0.32 53.68, 0 25.99 M0 25.99 C1.27 6.68, 10.11 -1.28, 25.99 0 M0 25.99 C-0.14 9.67, 9 1.15, 25.99 0" stroke="#1e1e1e" stroke-width="2" fill="none"></path></g><g transform="translate(530.6578718367789 116.74384659711359) rotate(0 49.67022705078125 21.238463032573755)"><text x="49.67022705078125" y="14.883914893227686" font-family="Virgil, Segoe UI Emoji" font-size="16.990770426059004px" fill="#1e1e1e" text-anchor="middle" style="white-space: pre;" direction="ltr" dominant-baseline="alphabetic">Build Task </text><text x="49.67022705078125" y="36.122377925801445" font-family="Virgil, Segoe UI Emoji" font-size="16.990770426059004px" fill="#1e1e1e" text-anchor="middle" style="white-space: pre;" direction="ltr" dominant-baseline="alphabetic">Manager</text></g><g mask="url(#mask-0wr0JrNqp7OtQPmmU1eCV)" stroke-linecap="round"><g transform="translate(513.1307465291204 150.09086384167546) rotate(0 -140.16877788815646 28.954731485493852)"><path d="M1.18 -1.06 C-20.59 8.38, -84.9 48.48, -131.82 57.33 C-178.74 66.18, -255.62 53.11, -280.32 52.04" stroke="#1e1e1e" stroke-width="1.5" fill="none" stroke-dasharray="8 9"></path></g><g transform="translate(513.1307465291204 150.09086384167546) rotate(0 -140.16877788815646 28.954731485493852)"><path d="M-256.12 45.78 C-262.73 47.51, -266.81 48.57, -280.32 52.04" stroke="#1e1e1e" stroke-width="1.5" fill="none"></path></g><g transform="translate(513.1307465291204 150.09086384167546) rotate(0 -140.16877788815646 28.954731485493852)"><path d="M-257.76 62.8 C-264.14 61.08, -267.9 58.71, -280.32 52.04" stroke="#1e1e1e" stroke-width="1.5" fill="none"></path></g></g><mask id="mask-0wr0JrNqp7OtQPmmU1eCV"><rect x="0" y="0" fill="#fff" width="893.4683023054336" height="308.00032681266316"></rect><rect x="337.4511171414706" y="195.50032681266316" fill="#000" width="87.43991088867188" height="25" opacity="1"></rect></mask><g transform="translate(337.4511171414706 195.50032681266316) rotate(0 36.10971020614625 -15.746674478946154)"><text x="43.71995544433594" y="17.52" font-family="Virgil, Segoe UI Emoji" font-size="20px" fill="#1e1e1e" text-anchor="middle" style="white-space: pre;" direction="ltr" dominant-baseline="alphabetic">Response</text></g></svg>